<?xml version="1.0" standalone="no"?>
<!DOCTYPE svg PUBLIC "-//W3C//DTD SVG 20010904//EN"
 "http://www.w3.org/TR/2001/REC-SVG-20010904/DTD/svg10.dtd">
<svg version="1.0" xmlns="http://www.w3.org/2000/svg"
 width="820.000000pt" height="491.000000pt" viewBox="0 0 820.000000 491.000000"
 preserveAspectRatio="xMidYMid meet">
<metadata>
Created by potrace 1.16, written by Peter Selinger 2001-2019
</metadata>
<g transform="translate(0.000000,491.000000) scale(0.100000,-0.100000)"
fill="#000000" stroke="none">
<path d="M3866 4485 c-14 -36 -181 -295 -191 -295 -5 1 -71 59 -145 130 -85
82 -137 125 -141 117 -4 -7 -30 -83 -59 -169 -29 -87 -57 -158 -62 -158 -5 0
-81 45 -169 100 -88 55 -163 100 -168 100 -4 0 -11 -60 -15 -132 -8 -135 -15
-210 -22 -217 -2 -2 -88 28 -191 68 -189 72 -208 78 -199 63 3 -5 7 -22 10
-38 3 -16 15 -85 27 -154 26 -154 26 -148 16 -151 -8 -1 -65 8 -271 47 -71 13
-132 22 -134 19 -3 -3 11 -40 31 -82 19 -43 42 -95 51 -115 l15 -38 -776 -2
-775 -3 -24 -30 -24 -30 0 -1068 0 -1069 29 -29 29 -29 766 0 c658 0 766 -2
766 -14 0 -8 -23 -72 -50 -142 -28 -70 -48 -129 -46 -131 2 -2 77 12 167 31
90 19 182 38 203 42 l39 7 -7 -64 c-4 -35 -14 -113 -23 -172 -8 -60 -13 -110
-11 -113 3 -2 87 30 187 71 99 41 185 75 190 75 8 0 22 -105 37 -278 5 -54 10
-72 20 -68 7 3 79 48 159 102 81 53 154 97 162 98 15 1 24 -18 92 -204 52
-142 34 -144 188 13 106 108 137 134 146 124 7 -6 48 -66 91 -132 44 -66 88
-130 97 -143 l18 -23 24 38 c13 21 55 88 92 148 38 61 73 115 79 122 8 9 45
-20 151 -122 77 -74 142 -134 145 -135 3 0 30 76 60 170 30 93 59 170 64 170
5 0 80 -45 168 -100 88 -55 164 -100 169 -100 5 0 9 8 9 18 0 9 5 67 10 127 5
61 10 131 11 158 1 26 6 47 10 47 4 0 91 -32 194 -71 102 -39 188 -69 190 -67
3 2 -10 79 -27 171 -17 92 -28 170 -24 174 3 4 95 -10 204 -30 108 -21 200
-37 204 -37 3 0 -16 50 -43 112 -27 62 -49 116 -49 120 0 4 373 8 829 8 l828
0 27 25 26 24 0 1078 c0 593 -4 1083 -8 1089 -4 5 -18 18 -32 27 -22 16 -91
17 -847 17 -652 0 -823 3 -822 13 0 6 24 71 53 142 30 72 52 132 51 133 -2 2
-87 -15 -190 -37 -189 -42 -225 -47 -225 -33 1 4 11 81 24 172 13 91 22 167
20 169 -2 2 -68 -24 -146 -57 -194 -82 -228 -95 -233 -90 -3 3 -15 81 -26 174
-12 93 -23 171 -25 172 -1 2 -77 -46 -168 -107 l-165 -111 -21 47 c-11 25 -27
65 -35 87 -28 82 -74 198 -79 203 -3 3 -64 -56 -137 -131 -73 -75 -136 -136
-140 -136 -5 0 -55 70 -111 155 -57 85 -106 155 -109 155 -4 0 -9 -7 -13 -15z
m3194 -1085 c19 -19 20 -33 20 -448 0 -417 -1 -429 -20 -450 l-21 -22 -3082 0
c-2647 0 -3086 2 -3103 14 -18 14 -19 30 -19 456 0 426 1 442 19 456 17 12
456 14 3103 14 3070 0 3083 0 3103 -20z m-4 -994 c22 -30 20 -882 -2 -911 -15
-20 -28 -20 -3072 -23 -1681 -1 -3071 0 -3089 3 -66 12 -63 -8 -63 473 0 240
4 442 8 449 4 7 19 16 32 22 16 6 1091 9 3098 8 3030 -2 3074 -2 3088 -21z"/>
<path d="M885 3381 c-3 -2 -4 -196 -4 -432 l-1 -429 495 0 495 0 0 430 0 430
-491 2 c-270 2 -492 1 -494 -1z m675 -165 c49 -25 79 -55 101 -98 10 -21 19
-39 19 -42 0 -3 -39 -17 -87 -33 -66 -21 -87 -25 -91 -15 -2 7 -15 26 -29 42
-21 26 -32 30 -72 30 -40 0 -52 -5 -76 -30 -26 -28 -30 -39 -33 -106 -7 -120
29 -174 116 -174 40 0 49 5 81 39 l37 40 74 -34 c41 -19 76 -38 78 -44 6 -17
-56 -77 -110 -106 -46 -25 -66 -30 -148 -33 -80 -3 -104 0 -154 18 -76 29
-138 91 -161 161 -22 66 -17 208 9 257 28 53 90 108 147 131 71 28 243 26 299
-3z"/>
<path d="M1920 2953 l0 -433 496 0 c448 0 496 2 490 16 -3 9 -6 203 -6 432 l0
417 -490 0 -490 0 0 -432z m663 122 c105 -244 127 -295 152 -357 l24 -58 -103
0 -103 0 -19 53 -19 52 -100 -1 c-107 -1 -103 1 -129 -66 l-15 -38 -100 0
c-56 0 -101 2 -101 5 0 3 18 46 40 97 22 51 77 180 123 286 l82 192 99 -2 100
-3 69 -160z"/>
<path d="M6046 3382 c-3 -3 -6 -198 -6 -434 l0 -428 495 0 495 0 0 434 0 435
-489 -1 c-269 0 -492 -2 -495 -6z m954 -432 l0 -410 -72 0 -73 0 -60 73 c-33
39 -80 96 -103 125 l-44 53 49 56 c51 60 149 177 172 206 13 16 6 17 -105 17
l-119 0 -53 -75 c-30 -41 -57 -75 -60 -75 -4 1 -24 27 -45 59 -61 93 -57 92
-190 89 l-115 -3 116 -139 c80 -97 112 -143 106 -151 -5 -7 -52 -63 -104 -124
l-95 -110 -67 -1 -68 0 0 410 0 410 465 0 465 0 0 -410z"/>
<path d="M2940 2950 l0 -430 495 0 495 0 0 430 0 430 -495 0 -495 0 0 -430z
m683 257 c68 -34 97 -79 97 -152 0 -75 -28 -122 -103 -170 -13 -9 -8 -22 38
-95 30 -47 61 -95 70 -107 l16 -23 -109 0 -109 0 -45 78 c-25 42 -51 87 -57
98 -8 18 -18 21 -48 19 l-38 -2 -3 -97 -3 -96 -89 0 -90 0 0 291 0 291 208 -4
c204 -3 208 -3 265 -31z"/>
<path d="M3338 3104 c-3 -5 -5 -34 -4 -64 l1 -55 83 0 c90 0 112 12 112 60 0
45 -22 58 -107 63 -44 2 -83 0 -85 -4z"/>
<path d="M3980 2950 l0 -430 495 0 495 0 0 430 0 430 -495 0 -495 0 0 -430z
m770 220 l0 -70 -180 0 -180 0 0 -40 0 -40 110 0 111 0 -3 -67 -3 -68 -105 0
-105 0 -3 -112 -3 -113 -94 0 -95 0 0 290 0 290 275 0 275 0 0 -70z"/>
<path d="M5020 2950 l0 -430 490 0 490 0 0 430 0 430 -490 0 -490 0 0 -430z
m583 278 c4 -11 162 -376 228 -525 l18 -43 -104 0 -104 0 -18 50 -18 51 -104
-3 -105 -3 -15 -47 -15 -48 -104 0 c-57 0 -102 4 -100 9 2 4 57 135 123 289
l120 281 96 1 c68 0 98 -4 102 -12z"/>
<path d="M880 1955 l0 -435 490 0 490 0 0 435 0 435 -490 0 -490 0 0 -435z
m958 3 l-3 -413 -462 -3 -463 -3 0 416 0 415 465 0 465 0 -2 -412z"/>
<path d="M1316 2225 c-8 -32 -37 -47 -106 -54 l-55 -6 -3 -52 -3 -53 75 0 76
0 0 -160 0 -160 -75 0 -75 0 0 -50 0 -51 240 2 240 1 0 49 0 49 -75 0 -75 0 0
255 0 255 -79 0 c-76 0 -79 -1 -85 -25z"/>
<path d="M1915 2378 c-3 -7 -4 -204 -3 -437 l3 -424 490 1 490 2 0 432 0 433
-488 3 c-385 2 -489 0 -492 -10z m577 -183 c230 -79 238 -396 13 -496 -72 -32
-219 -32 -289 -1 -76 34 -112 67 -142 127 -61 126 -21 275 93 342 91 53 218
64 325 28z"/>
<path d="M2301 2071 c-45 -24 -60 -55 -61 -124 0 -72 18 -109 66 -132 97 -46
185 35 171 158 -7 56 -27 83 -74 103 -42 18 -61 17 -102 -5z"/>
<path d="M2940 1953 l0 -438 492 2 493 2 0 433 0 433 -492 3 -493 2 0 -437z
m279 90 c19 -84 37 -151 38 -149 4 4 37 135 57 229 l18 78 85 -3 86 -3 24 -95
c12 -52 28 -121 34 -153 7 -32 15 -55 19 -50 4 4 22 74 40 156 l33 147 96 0
96 0 -85 -260 -85 -259 -96 -1 -96 0 -22 103 c-38 176 -43 198 -47 194 -2 -2
-15 -59 -29 -128 -14 -68 -27 -134 -30 -147 -5 -22 -9 -23 -102 -20 l-96 3
-69 215 c-38 118 -75 234 -83 258 l-13 43 96 -3 95 -3 36 -152z"/>
<path d="M3975 2378 c-3 -7 -4 -203 -3 -436 l3 -423 493 -2 492 -2 0 438 0
437 -490 0 c-383 0 -492 -3 -495 -12z m465 -313 l85 -134 3 135 3 134 89 0 90
0 0 -260 0 -260 -92 0 -93 0 -90 135 c-49 74 -93 135 -96 135 -3 0 -4 -61 -2
-135 l5 -135 -96 0 -96 0 0 260 0 260 103 0 102 -1 85 -134z"/>
<path d="M5010 1953 l0 -438 492 2 493 3 3 435 2 435 -495 0 -495 0 0 -437z
m710 187 l0 -70 -165 0 -165 0 0 -35 0 -36 148 2 147 1 3 -65 3 -65 -126 5
c-157 6 -175 2 -175 -37 l0 -30 170 0 170 0 0 -70 0 -70 -270 0 -270 0 0 270
0 270 265 0 265 0 0 -70z"/>
<path d="M6050 1945 l0 -435 490 0 490 0 0 435 0 435 -490 0 -490 0 0 -435z
m623 234 c22 -6 55 -26 75 -44 35 -32 37 -37 37 -95 0 -58 -2 -63 -37 -95
l-37 -34 34 -34 c26 -26 35 -44 39 -83 3 -27 10 -66 15 -86 l8 -38 -98 0 -98
0 -6 48 c-16 122 -26 132 -125 132 l-65 0 3 -90 3 -90 -100 0 -101 0 0 260 0
260 208 0 c116 0 224 -5 245 -11z"/>
<path d="M6420 2013 l0 -53 59 0 c94 0 134 26 115 74 -8 20 -31 26 -112 29
l-62 2 0 -52z"/>
</g>
</svg>
