<svg xmlns="http://www.w3.org/2000/svg" viewBox="0 0 252.55 70.81"><defs><style>.cls-1{fill:#134c8c;}.cls-2{fill:#919396;}</style></defs><title>Asset 27autocheck-logo</title><g id="Layer_2" data-name="Layer 2"><g id="Layer_1-2" data-name="Layer 1"><path class="cls-1" d="M39.93,47.38,55.44,21.3h8.77l4.26,26.08h-7l-.76-5.57H50.58l-3.1,5.56ZM60,36.87,58.91,26.69h-.08L53.31,36.87Z"/><path class="cls-1" d="M95.1,27.91l-3,14.38c-.37,1.79-.65,3.49-.82,5.08H85l.52-3.18h-.07A9.85,9.85,0,0,1,78,47.81a5.58,5.58,0,0,1-4.49-1.94,7.09,7.09,0,0,1-1.57-4.78A22.77,22.77,0,0,1,72.41,37l1.8-9.07h7L79.34,37a18.45,18.45,0,0,0-.45,3c0,1.52.87,2.27,2.62,2.24q3.88-.08,5-5.34l1.91-9Z"/><path class="cls-1" d="M97.26,32.64l.82-4.73h3.85l.93-4.2L110,21.8l-1.34,6.12h4.59l-.83,4.73h-4.93L106.28,38a21.13,21.13,0,0,0-.57,3.35,2,2,0,0,0,1.68,2.17,2,2,0,0,0,.55,0,8.09,8.09,0,0,0,2.27-.54l-.75,4.44a26.61,26.61,0,0,1-4.18.37,6.6,6.6,0,0,1-4.37-1.34,5.4,5.4,0,0,1-1.79-4.4,22.46,22.46,0,0,1,.6-4l1.15-5.45Z"/><path class="cls-1" d="M135.82,36.17q0,5.84-3.55,8.85-3.26,2.81-9,2.8c-3.41,0-6-.87-7.78-2.61a8.38,8.38,0,0,1-2.35-6.27,10.74,10.74,0,0,1,3.44-8.31,13,13,0,0,1,9.12-3.16,10.86,10.86,0,0,1,7.55,2.5A8,8,0,0,1,135.82,36.17Zm-7-.07q0-3.9-3.51-3.91a4.61,4.61,0,0,0-3.85,2.12,7.46,7.46,0,0,0-1.38,4.5,4.69,4.69,0,0,0,1,3.14,3.33,3.33,0,0,0,2.67,1.17,4.4,4.4,0,0,0,3.74-1.86,8.44,8.44,0,0,0,1.38-5.16Z"/><path class="cls-1" d="M164.39,22.23l-1.64,5.34a13,13,0,0,0-6.5-1.55q-4.91,0-7.51,3.06a10.14,10.14,0,0,0-2.28,6.79,6.42,6.42,0,0,0,2,5.11,7.33,7.33,0,0,0,5.12,1.68,14.48,14.48,0,0,0,6.63-1.45l-.75,5.6a21.85,21.85,0,0,1-7,1q-6.19,0-9.75-3.4a11.39,11.39,0,0,1-3.48-8.74A14.11,14.11,0,0,1,143.55,25q4.37-4.16,11.66-4.16A27,27,0,0,1,164.39,22.23Z"/><path class="cls-1" d="M162.09,47.38l5.9-28h6.8l-2.39,11.4h.08a8,8,0,0,1,6.73-3.31,5.5,5.5,0,0,1,4.44,1.89,7.19,7.19,0,0,1,1.61,4.84,22.77,22.77,0,0,1-.52,4.11L183,47.39H176l1.85-9.11a18.45,18.45,0,0,0,.45-3c0-1.51-.87-2.26-2.61-2.24-2.59,0-4.25,1.83-5,5.33l-1.9,9Z"/><path class="cls-1" d="M205.59,42l-.86,4.74a23.74,23.74,0,0,1-6.8,1.08,10.32,10.32,0,0,1-7.44-2.61,8.24,8.24,0,0,1-2.58-6.27,11.6,11.6,0,0,1,2.58-7.43,11,11,0,0,1,9.08-4,9.39,9.39,0,0,1,6.39,2A8,8,0,0,1,208.54,36a17.42,17.42,0,0,1-.49,3.66H194.21q.15,3.74,5.24,3.73A14,14,0,0,0,205.59,42Zm-10.91-6.24h8.25q0-3.78-3.29-3.78a5,5,0,0,0-3.4,1.21,4.9,4.9,0,0,0-1.57,2.57Z"/><path class="cls-1" d="M226.66,42l-1,5a18.69,18.69,0,0,1-5.76.75,9,9,0,0,1-6.69-2.58,8.53,8.53,0,0,1-2.47-6.27,10.76,10.76,0,0,1,3.47-8.13,12.66,12.66,0,0,1,9-3.31,15.84,15.84,0,0,1,6.22,1.31L228,33.47a10.52,10.52,0,0,0-4.34-1,5.8,5.8,0,0,0-4.26,1.6,6.34,6.34,0,0,0-1.68,4.65,4,4,0,0,0,1.27,3,4.67,4.67,0,0,0,3.36,1.21A11.57,11.57,0,0,0,226.66,42Z"/><path class="cls-1" d="M228.48,47.38l6-28h6.8l-3.57,16.71h.07l6.43-8.18h7.65l-8,9.38,5,10.09h-7.47l-4-9.64h-.07l-2,9.64Z"/><path class="cls-1" d="M43.48,5.12C46.56,1.7,53.48,0,58.09,0l.6,1.37-7.94,9.4L33,34.24l-12.3,19-3,5.13a5.55,5.55,0,0,1-1.78,2.44c-1.11.51-3.67.51-4.87.51-2.73,0-3.33,0-3.93-.43-.86-.6-1.28-1.79-1.88-3C3.33,54,0,45.43,0,41.16c0-1.45.85-2.13,2-2.9C3.79,37,6.36,35.53,8.58,35.53c1.71,0,1.88,1.45,2.39,2.82l1.71,4c.26.68,1,3.07,2,3.07s1.88-2,2.22-2.56l19.73-29.3Z"/><path class="cls-1" d="M251,21.6a1.73,1.73,0,1,1-.05,0H251Zm0,.33a1.33,1.33,0,0,0,0,2.65,1.27,1.27,0,0,0,1.25-1.29v0A1.28,1.28,0,0,0,251,21.93h0Zm-.25,2.19h-.39V22.47a3.47,3.47,0,0,1,.64-.06,1,1,0,0,1,.58.13.48.48,0,0,1,.16.35.43.43,0,0,1-.34.4h0c.16,0,.25.18.3.4a1,1,0,0,0,.12.41h-.42a1.28,1.28,0,0,1-.13-.39c0-.18-.13-.26-.35-.26h-.18Zm0-.93h.18c.21,0,.38-.07.38-.24s-.11-.25-.36-.25h-.21Z"/><path class="cls-2" d="M104.88,53.09h1.7l6.11,14h-1.94l-1.54-3.39h-7l-1.49,3.37h-2Zm.85,2.5L102.94,62h5.56Z"/><path class="cls-2" d="M120.28,59.74c.52-1.14,1.22-2.44,3.16-2.44,2.11,0,3.51,2,3.51,4.94s-1.43,5.08-3.64,5.08c-1.75,0-2.41-1.22-3-2.44v5.93h-1.63V57.49h1.61Zm4.07,5.64c.62-.62.87-1.59.87-3.26,0-2.27-.78-3.45-2.27-3.45-1.67,0-2.68,1.37-2.68,3.68S121.27,66,123,66A1.88,1.88,0,0,0,124.35,65.38Z"/><path class="cls-2" d="M128.37,59.41c.35-.85.95-2.19,3.94-2.19,3.52,0,3.52,1.88,3.52,2.83v4.69c0,1.18.06,1.28.76,1.3v1.1a3.45,3.45,0,0,1-1,.22c-1.26,0-1.36-1-1.36-1.88A4.15,4.15,0,0,1,131,67.36a3,3,0,0,1-3-3v-.12a3.18,3.18,0,0,1,.87-2.11,4.85,4.85,0,0,1,3.18-1.22c1.38-.15,1.55-.21,2.15-.83,0-1.16-.41-1.45-1.82-1.45s-2.23.43-2.67,1.51Zm5.84,1.88a3.34,3.34,0,0,1-2,.8,3,3,0,0,0-2,.93,1.84,1.84,0,0,0-.48,1.24,1.71,1.71,0,0,0,1.63,1.79h.17a2.75,2.75,0,0,0,1.84-.78,2.85,2.85,0,0,0,.84-2.46Z"/><path class="cls-2" d="M139.89,59.35c.49-.89,1.14-2.09,2.54-2.09h.68V59a5.69,5.69,0,0,0-.83-.08,2.33,2.33,0,0,0-2.4,2.27,1.47,1.47,0,0,0,0,.21V67h-1.67V57.49h1.63Z"/><path class="cls-2" d="M147.12,53.81v3.67h2v1.33h-2v5.8c0,1,.19,1.32.85,1.32a4.78,4.78,0,0,0,1.06-.17v1.35a6.61,6.61,0,0,1-1.47.22c-1.49,0-2.07-.49-2.07-1.75V58.81h-1.73V57.49h1.73V55Z"/><path class="cls-2" d="M162.71,62.18c0,3.16-1.78,5.18-4.52,5.18s-4.4-2.1-4.4-5.12,1.82-5,4.42-5S162.71,59.28,162.71,62.18Zm-7.21.15c0,2.31,1,3.63,2.85,3.63C160,66,161,64.58,161,62.3c0-2.62-1.22-3.68-2.81-3.68s-2.7,1.3-2.7,3.72Z"/><path class="cls-2" d="M166.48,58.87v8.2h-1.63v-8.2H163V57.49h1.89V55.05c0-1.65.53-2.15,2.27-2.15a8.25,8.25,0,0,1,1.22.1v1.35h-.74c-.85,0-1.13.29-1.13,1.22v2h1.9v1.37Z"/><path class="cls-2" d="M173.21,53.09h9.69l-.53,2.56h-5.75v2.91h5.31v2.56h-5.31v3.39h5.91l.52,2.56h-9.84Z"/><path class="cls-2" d="M184.21,57.47h3.1l2,2.65,2-2.65h3l-3.53,4.65,3.8,4.94h-3l-2.27-2.93-2.27,2.93H184l3.82-4.92Z"/><path class="cls-2" d="M198.5,58.7a3.41,3.41,0,0,1,3-1.49c2.46,0,4,1.84,4,4.83,0,3.28-1.51,5.29-4,5.29a3.61,3.61,0,0,1-3-1.52v5h-2.78V57.47h2.78Zm0,5.58a2.73,2.73,0,0,0,2.13,1.32,1.91,1.91,0,0,0,1.28-.52c.48-.5.68-1.3.68-2.77,0-2.21-.7-3.37-2-3.37a2.42,2.42,0,0,0-2.08,1.28Z"/><path class="cls-2" d="M215.59,63.08h-6.38c.08,1.65.7,2.42,2,2.42A2.61,2.61,0,0,0,213.42,64l1.9,1.09A4.62,4.62,0,0,1,211,67.35c-3.9,0-4.75-3.16-4.75-5.14,0-3,1.84-5,4.67-5a4.58,4.58,0,0,1,4.68,4.48c0,.14,0,.27,0,.41Zm-2.81-1.74c0-.52.06-2.35-1.74-2.35s-1.83,1.82-1.83,2.34Z"/><path class="cls-2" d="M219.57,60.46c.71-2.34,1.1-3.28,3-3.22v2.91h-.59a2.1,2.1,0,0,0-2.11,2.07v4.89h-2.77V57.47h2.52Z"/><path class="cls-2" d="M224.12,57.47h2.77v9.59h-2.77Zm0-4.38h2.77v2.58h-2.77Z"/><path class="cls-2" d="M237.44,64.32a.76.76,0,0,0,.66.86h.1a2.54,2.54,0,0,0,.39,0v1.72a4,4,0,0,1-1.8.39c-1.24,0-1.8-.48-2.07-1.77a3.21,3.21,0,0,1-3,1.78,2.86,2.86,0,0,1-3.09-2.63,2.29,2.29,0,0,1,0-.37c0-2.85,2.81-3.1,4-3.22a5.39,5.39,0,0,0,2.13-.45v-.37c0-.91-.56-1.41-1.59-1.41a2,2,0,0,0-1.95,1.27l-2.11-1c.31-.64.91-1.94,4-1.94,2.52,0,4.3.33,4.3,3Zm-2.79-2.51a3.68,3.68,0,0,1-1.32.48c-1.41.31-1.9.79-1.9,1.84a1.23,1.23,0,0,0,1.11,1.34h.19a1.9,1.9,0,0,0,1.92-1.86v-1.8Z"/><path class="cls-2" d="M242.81,59a3.44,3.44,0,0,1,3.08-1.76,3.16,3.16,0,0,1,2.38.85c.68.68.86,1.22.86,3v6h-2.79V61.62c0-1.94-.39-2.62-1.53-2.62a2.12,2.12,0,0,0-2,2.22c0,.05,0,.09,0,.13v5.72H240v-9.6h2.79Z"/></g></g></svg>