<?xml version="1.0" encoding="utf-8"?>
<!-- Generator: Adobe Illustrator 22.1.0, SVG Export Plug-In . SVG Version: 6.00 Build 0)  -->
<svg version="1.1" id="Layer_1" xmlns="http://www.w3.org/2000/svg" xmlns:xlink="http://www.w3.org/1999/xlink" x="0px" y="0px"
	 viewBox="0 0 298.2 96.4" style="enable-background:new 0 0 298.2 96.4;" xml:space="preserve">
<style type="text/css">
	.st0{fill:#406EB3;}
	.st1{fill:#632678;}
	.st2{fill:#982881;}
	.st3{fill:#BA2F7D;}
	.st4{fill:#26478D;}
</style>
<title>Asset 1experian-logo</title>
<g id="Layer_2_1_">
	<g id="Artwork">
		<path class="st0" d="M52.7,24.5H42.4c-3.1,0-5.6-2.5-5.6-5.6v0V8.6c0-3.1,2.5-5.6,5.6-5.6c0,0,0,0,0,0h10.4c3.1,0,5.5,2.5,5.5,5.6
			v10.4C58.3,22,55.8,24.5,52.7,24.5L52.7,24.5"/>
		<path class="st1" d="M25.9,47.7H14.3c-3.5,0-6.3-2.8-6.3-6.2c0,0,0,0,0,0V29.8c0-3.5,2.8-6.3,6.3-6.3l0,0h11.7
			c3.5,0,6.3,2.8,6.3,6.3l0,0v11.7C32.2,44.9,29.4,47.7,25.9,47.7C25.9,47.7,25.9,47.7,25.9,47.7"/>
		<path class="st2" d="M24.8,71.9h-7.1c-2.1,0-3.8-1.7-3.8-3.8V61c0-2.1,1.7-3.8,3.8-3.8h7.1c2.1,0,3.8,1.7,3.8,3.8v7.1
			C28.6,70.2,26.9,71.9,24.8,71.9"/>
		<path class="st3" d="M43.9,94.4h-8.4c-2.5,0-4.5-2-4.5-4.5c0,0,0,0,0,0v-8.4c0-2.5,2-4.5,4.5-4.5h8.4c2.5,0,4.5,2,4.5,4.5
			c0,0,0,0,0,0v8.4C48.4,92.3,46.4,94.4,43.9,94.4C43.9,94.4,43.9,94.4,43.9,94.4"/>
		<path class="st3" d="M74.7,28.7h-5.8c-1.7,0-3.1-1.4-3.1-3.1c0,0,0,0,0,0v-5.8c0-1.7,1.4-3.1,3.1-3.1l0,0h5.8
			c1.7,0,3.1,1.4,3.1,3.1v5.8C77.9,27.3,76.5,28.7,74.7,28.7"/>
		<path class="st4" d="M202.3,32.6c1.9,0,3.4-1.5,3.4-3.4c0-1.9-1.5-3.4-3.4-3.4c-1.9,0-3.4,1.5-3.4,3.4c0,0,0,0,0,0
			C198.9,31.1,200.4,32.6,202.3,32.6C202.3,32.6,202.3,32.6,202.3,32.6z"/>
		<path class="st4" d="M79.7,68.4c-0.5,0.7-1.4,1.2-2.3,1.2c-0.5,0-1.1-0.1-1.6-0.4c-0.8-0.6-1.2-1.4-1.2-2.4c0-0.4,0.1-0.9,0.4-1.2
			l7.8-12.3L75,40.9c-0.3-0.4-0.4-0.9-0.4-1.4c0-1,0.5-1.8,1.3-2.3c0.4-0.3,0.9-0.4,1.4-0.4c0.9,0,1.8,0.5,2.3,1.2L86,48.1l6.4-10.1
			c0.5-0.8,1.4-1.2,2.3-1.2c1.5,0,2.7,1.2,2.7,2.7c0,0,0,0,0,0.1c0,0.5-0.2,1-0.4,1.4l-7.8,12.3l7.8,12.3c0.3,0.4,0.4,0.8,0.4,1.3
			c0,1-0.5,1.8-1.2,2.4c-0.5,0.3-1,0.4-1.6,0.4c-0.9,0-1.8-0.5-2.2-1.2l-6.4-10L79.7,68.4z"/>
		<path class="st4" d="M107.5,40.7c6.9-6.2,17.5-5.6,23.7,1.3c6.2,6.9,5.6,17.5-1.3,23.7c-6.4,5.7-16,5.7-22.4,0V80
			c-0.1,1.5-1.3,2.6-2.8,2.6c-1.5-0.1-2.6-1.2-2.7-2.7V39.4c0.1-1.5,1.3-2.6,2.7-2.7c1.5,0,2.7,1.2,2.8,2.7L107.5,40.7z M118.6,42
			c-6.2,0-11.2,5-11.2,11.2c0,6.2,5,11.2,11.2,11.2c6.2,0,11.2-5,11.2-11.2c0.1-6.1-4.9-11.2-11-11.2C118.8,42,118.7,42,118.6,42z"
			/>
		<path class="st4" d="M183,50.2V67c-0.1,1.5-1.3,2.6-2.7,2.7c-1.5,0-2.7-1.2-2.8-2.7V39.4c0.1-1.5,1.3-2.7,2.8-2.7
			c1.4,0,2.6,1.1,2.7,2.5c2.4-1.8,5.4-2.8,8.4-2.8c1.6-0.1,2.9,1.2,3,2.7c-0.1,1.6-1.4,2.9-3,2.8C187,42.2,183,43.8,183,50.2z"/>
		<path class="st4" d="M202.4,36.7c-1.5,0-2.8,1.2-2.8,2.7V67c0,1.5,1.2,2.8,2.8,2.8c1.5,0,2.8-1.2,2.8-2.8l0,0V39.4
			C204.9,37.9,203.8,36.8,202.4,36.7z"/>
		<path class="st4" d="M237.6,39.4c0.1-1.5,1.3-2.7,2.8-2.7c1.5,0.1,2.6,1.2,2.7,2.7V67c-0.1,1.5-1.3,2.6-2.7,2.7
			c-1.5,0-2.7-1.2-2.8-2.7v-1.4c-6.9,6.2-17.5,5.6-23.7-1.3c-6.2-6.9-5.6-17.5,1.3-23.7c6.4-5.7,16-5.7,22.4,0L237.6,39.4z
			 M226.4,64.4c6.2,0,11.2-5,11.2-11.2c0-6.2-5-11.2-11.2-11.2c-6.2,0-11.2,5-11.2,11.2c-0.1,6.1,4.8,11.2,11,11.2
			C226.3,64.4,226.3,64.4,226.4,64.4z"/>
		<path class="st4" d="M271.2,50.5c-0.1-4.7-3.9-8.6-8.6-8.7c-4.5,0-8.6,1.8-8.6,8.3V67c-0.1,1.5-1.3,2.6-2.7,2.7
			c-1.5,0-2.8-1.1-2.8-2.7V39.4c0.1-1.5,1.3-2.7,2.8-2.7c1.4,0,2.6,1.1,2.7,2.5c2.5-1.9,5.5-2.8,8.5-2.8c7.6,0,14.2,5.9,14.2,13.3
			V67c0,1.5-1.2,2.8-2.8,2.8c-1.5,0-2.8-1.2-2.8-2.8l0,0L271.2,50.5z"/>
		<path class="st4" d="M73.1,52.2c-0.1-8.5-7.7-15.8-16.7-15.8c-9.3,0-16.8,7.5-16.8,16.7S47.1,70,56.4,70c0,0,0,0,0,0
			c4.3,0,8.5-1.7,11.6-4.7c1.2-1,1.3-2.7,0.3-3.9c-0.5-0.6-1.3-1-2.1-1c-0.9,0.1-1.6,0.5-2.2,1.1c-2,2-4.8,3-7.6,2.9
			c-5.4,0.1-10.1-3.8-11.1-9.1h25.2h0.1c0.1,0,0.2,0,0.3-0.1C72.2,54.8,73.1,53.6,73.1,52.2z M56.4,42c4.9,0,9.2,3.1,10.6,7.7H45.7
			C47.2,45.1,51.5,41.9,56.4,42z"/>
		<path class="st4" d="M172.8,52.2c-0.1-8.5-7.7-15.8-16.7-15.8c-9.3,0-16.8,7.5-16.8,16.7S146.8,70,156.1,70c0,0,0,0,0,0
			c4.3,0,8.5-1.7,11.6-4.7c1.2-1,1.3-2.7,0.3-3.9c-0.5-0.6-1.3-1-2.1-1c-0.9,0.1-1.6,0.5-2.2,1.1c-2,2-4.8,3-7.6,2.9
			c-5.4,0.1-10.1-3.8-11.1-9.1h25.2h0.2h0.1C171.9,54.9,172.9,53.6,172.8,52.2z M156.1,42c4.9,0,9.2,3.1,10.6,7.7h-21.4
			C146.9,45.1,151.2,41.9,156.1,42z"/>
		<path class="st4" d="M282.6,69.7c-0.3,0-0.5-0.2-0.5-0.4c0,0,0,0,0,0v-4.6h-1c-0.2,0-0.4-0.2-0.4-0.5c0-0.2,0.2-0.5,0.4-0.5
			c0,0,0,0,0,0h3c0.2,0,0.4,0.2,0.4,0.4c0,0,0,0,0,0c0,0.2-0.2,0.4-0.4,0.5h-1.1v4.7C283,69.5,282.8,69.7,282.6,69.7z"/>
		<path class="st4" d="M288,69.7c-0.2,0-0.4-0.1-0.5-0.4l-1.3-3.8v3.7c0,0.2-0.2,0.4-0.4,0.4c0,0,0,0,0,0c-0.2,0-0.4-0.2-0.5-0.4
			c0,0,0,0,0,0v-5c0-0.4,0.3-0.7,0.7-0.7c0.3,0,0.6,0.2,0.7,0.5L288,68l1.3-3.9c0.1-0.4,0.5-0.6,0.9-0.5c0.3,0.1,0.5,0.3,0.5,0.6
			v4.9c0,0.2-0.2,0.4-0.4,0.4c0,0,0,0,0,0c-0.3,0-0.5-0.2-0.5-0.4c0,0,0,0,0,0v-3.7c-0.2,0.6-0.5,1.5-0.8,2.3l-0.5,1.5
			C288.4,69.6,288.2,69.7,288,69.7z"/>
	</g>
</g>
</svg>
