<svg xmlns="http://www.w3.org/2000/svg" xmlns:xlink="http://www.w3.org/1999/xlink" viewBox="0 0 240 88"><defs><style>.cls-1{fill:none;}.cls-2{opacity:0.8;}.cls-3{fill:url(#radial-gradient);}.cls-4{opacity:0.25;fill:url(#radial-gradient-2);}.cls-5{clip-path:url(#clip-path);}.cls-6{fill:url(#linear-gradient);}.cls-7{fill:#f1b725;}.cls-8{fill:url(#linear-gradient-2);}.cls-9{fill:url(#linear-gradient-3);}.cls-10{fill:url(#linear-gradient-4);}.cls-11{fill:url(#linear-gradient-5);}.cls-12{fill:#b3b3b3;opacity:0.3;}.cls-12,.cls-15,.cls-16,.cls-17,.cls-20,.cls-22,.cls-23{fill-rule:evenodd;}.cls-13{fill:url(#linear-gradient-6);}.cls-14{fill:url(#linear-gradient-7);}.cls-15{fill:url(#linear-gradient-8);}.cls-16{fill:url(#linear-gradient-9);}.cls-17{fill:url(#linear-gradient-10);}.cls-18{fill:#152a4a;}.cls-19{fill:#fff;}.cls-20{fill:url(#linear-gradient-11);}.cls-21{fill:#cecccb;}.cls-22{fill:url(#linear-gradient-12);}.cls-23{fill:url(#linear-gradient-13);}.cls-24{fill:#12284c;}.cls-25{fill:url(#linear-gradient-14);}.cls-26{fill:url(#linear-gradient-15);}.cls-27{fill:#004990;}.cls-28{fill:#ccc;}</style><radialGradient id="radial-gradient" cx="47.64" cy="106.55" r="49.79" gradientTransform="translate(3.45 64.78) scale(0.97 0.16)" gradientUnits="userSpaceOnUse"><stop offset="0" stop-color="#808184"/><stop offset="0.14" stop-color="#858689" stop-opacity="0.96"/><stop offset="0.33" stop-color="#959698" stop-opacity="0.84"/><stop offset="0.54" stop-color="#aeafb1" stop-opacity="0.64"/><stop offset="0.76" stop-color="#d2d2d3" stop-opacity="0.36"/><stop offset="1" stop-color="#fff" stop-opacity="0"/></radialGradient><radialGradient id="radial-gradient-2" cx="45.59" cy="107.8" r="11.76" gradientTransform="translate(3.41 61.65) scale(0.99 0.18)" gradientUnits="userSpaceOnUse"><stop offset="0" stop-color="#595a5c"/><stop offset="0.16" stop-color="#5d5e60" stop-opacity="0.94"/><stop offset="0.38" stop-color="#67686a" stop-opacity="0.76"/><stop offset="0.62" stop-color="#78797c" stop-opacity="0.46"/><stop offset="0.88" stop-color="#8f9194" stop-opacity="0.05"/><stop offset="0.91" stop-color="#929497" stop-opacity="0"/></radialGradient><clipPath id="clip-path" transform="translate(0 -1.25)"><path class="cls-1" d="M26.22,49.71a136.65,136.65,0,0,1,43.09,6.41s8.22-13-2.13-38.65C58.08-5.11,42.76-6,32.75,16.06S26.22,49.71,26.22,49.71Z"/></clipPath><linearGradient id="linear-gradient" x1="49.6" y1="2.65" x2="49.6" y2="22.95" gradientUnits="userSpaceOnUse"><stop offset="0.34" stop-color="#f9c445"/><stop offset="0.42" stop-color="#facd5c"/><stop offset="0.59" stop-color="#fcdd88"/><stop offset="0.73" stop-color="#fee9a8"/><stop offset="0.86" stop-color="#fff0bb"/><stop offset="0.94" stop-color="#fff3c2"/></linearGradient><linearGradient id="linear-gradient-2" x1="49.59" y1="2.64" x2="49.59" y2="9.1" gradientUnits="userSpaceOnUse"><stop offset="0" stop-color="#fbe192"/><stop offset="0.07" stop-color="#fbde8a"/><stop offset="0.22" stop-color="#fad87d"/><stop offset="0.43" stop-color="#fad576"/><stop offset="0.9" stop-color="#fad474"/></linearGradient><linearGradient id="linear-gradient-3" x1="49.6" y1="4.67" x2="49.6" y2="3.44" gradientUnits="userSpaceOnUse"><stop offset="0" stop-color="#faf8cf"/><stop offset="1" stop-color="#fff"/></linearGradient><linearGradient id="linear-gradient-4" x1="49.6" y1="68.55" x2="49.6" y2="26.04" gradientUnits="userSpaceOnUse"><stop offset="0.58" stop-color="#fff3c2"/><stop offset="0.6" stop-color="#feeeb6"/><stop offset="0.67" stop-color="#fcdf8e"/><stop offset="0.74" stop-color="#fbd36e"/><stop offset="0.81" stop-color="#facb57"/><stop offset="0.88" stop-color="#f9c64a"/><stop offset="0.94" stop-color="#f9c445"/></linearGradient><linearGradient id="linear-gradient-5" x1="55.49" y1="58.28" x2="32.24" y2="5.43" gradientUnits="userSpaceOnUse"><stop offset="0.37" stop-color="#fee496"/><stop offset="0.42" stop-color="#fee69b"/><stop offset="0.48" stop-color="#ffeba9"/><stop offset="0.51" stop-color="#ffeeb3"/><stop offset="0.52" stop-color="#ffefb9"/><stop offset="0.61" stop-color="#fff8df"/><stop offset="0.69" stop-color="#fffdf6"/><stop offset="0.74" stop-color="#fff"/></linearGradient><linearGradient id="linear-gradient-6" y1="62.45" x2="34.83" y2="62.45" gradientUnits="userSpaceOnUse"><stop offset="0" stop-color="#327abc"/><stop offset="0.78" stop-color="#172f56"/></linearGradient><linearGradient id="linear-gradient-7" x1="44.56" y1="62.45" x2="79.39" y2="62.45" gradientTransform="matrix(-1, 0, 0, 1, 143, 0)" xlink:href="#linear-gradient-6"/><linearGradient id="linear-gradient-8" x1="-31.31" y1="58.39" x2="23.9" y2="58.39" gradientUnits="userSpaceOnUse"><stop offset="0" stop-color="#0a2543"/><stop offset="1" stop-color="#08080a"/></linearGradient><linearGradient id="linear-gradient-9" x1="63.6" y1="58.39" x2="88.39" y2="58.39" gradientUnits="userSpaceOnUse"><stop offset="0" stop-color="#08080a"/><stop offset="1" stop-color="#0a2543"/></linearGradient><linearGradient id="linear-gradient-10" x1="7.16" y1="53.26" x2="92.03" y2="53.26" gradientUnits="userSpaceOnUse"><stop offset="0" stop-color="#134c88"/><stop offset="0.15" stop-color="#2363a2"/><stop offset="0.31" stop-color="#2f75b7"/><stop offset="0.42" stop-color="#347cbe"/><stop offset="0.69" stop-color="#2668a7"/><stop offset="1" stop-color="#134c88"/></linearGradient><linearGradient id="linear-gradient-11" x1="48.55" y1="78.1" x2="48.55" y2="53.11" gradientUnits="userSpaceOnUse"><stop offset="0" stop-color="#cecccb"/><stop offset="0.27" stop-color="#d2d0cf"/><stop offset="0.56" stop-color="#dedddc"/><stop offset="0.85" stop-color="#f2f1f1"/><stop offset="1" stop-color="#fff"/></linearGradient><linearGradient id="linear-gradient-12" x1="48.55" y1="76.77" x2="48.55" y2="58.2" gradientUnits="userSpaceOnUse"><stop offset="0" stop-color="#367bbe"/><stop offset="0.56" stop-color="#215fa0"/><stop offset="1" stop-color="#144d8e"/></linearGradient><linearGradient id="linear-gradient-13" x1="48.7" y1="64.35" x2="48.7" y2="59.11" gradientUnits="userSpaceOnUse"><stop offset="0" stop-color="#1e64ab"/><stop offset="1" stop-color="#5497d1"/></linearGradient><linearGradient id="linear-gradient-14" x1="48.74" y1="73.12" x2="48.74" y2="61.85" gradientUnits="userSpaceOnUse"><stop offset="0" stop-color="#b9b9b9"/><stop offset="1" stop-color="#fff"/></linearGradient><linearGradient id="linear-gradient-15" x1="48.7" y1="60.63" x2="48.7" y2="59.66" gradientUnits="userSpaceOnUse"><stop offset="0" stop-color="#5a9bd4"/><stop offset="0.22" stop-color="#609fd6"/><stop offset="0.5" stop-color="#70aadb"/><stop offset="0.82" stop-color="#8bbde4"/><stop offset="1" stop-color="#9dc9ea"/></linearGradient></defs><title>Asset 1Owners</title><g id="Layer_2" data-name="Layer 2"><g id="Layer_1-2" data-name="Layer 1"><g class="cls-2"><path class="cls-3" d="M98.44,81c0,4.55-22,8.23-49.22,8.23S0,85.57,0,81s22-8.23,49.22-8.23S98.44,76.48,98.44,81Z" transform="translate(0 -1.25)"/><path class="cls-4" d="M62.59,81.21c0,1.63-6.28,3-14,3s-14-1.32-14-3,6.28-2.95,14-2.95S62.59,79.58,62.59,81.21Z" transform="translate(0 -1.25)"/></g><g class="cls-5"><path class="cls-6" d="M59.75,12.8A10.16,10.16,0,1,1,49.59,2.65,10.15,10.15,0,0,1,59.75,12.8Z" transform="translate(0 -1.25)"/><path class="cls-7" d="M49.59,2.65A10.15,10.15,0,1,1,39.44,12.8,10.15,10.15,0,0,1,49.59,2.65m0-1.21A11.36,11.36,0,1,0,61,12.8,11.37,11.37,0,0,0,49.59,1.44Z" transform="translate(0 -1.25)"/><path class="cls-8" d="M49.6,2.65s-6.36-.49-9.49,6.45A18.58,18.58,0,0,1,49.6,6.79,18.52,18.52,0,0,1,59.08,9.1C56,2.16,49.6,2.65,49.6,2.65Z" transform="translate(0 -1.25)"/><path class="cls-9" d="M45.46,4.65A6.69,6.69,0,0,1,49.6,3.44a6.6,6.6,0,0,1,4.13,1.21A23.35,23.35,0,0,0,49.6,4,23.36,23.36,0,0,0,45.46,4.65Z" transform="translate(0 -1.25)"/><path class="cls-10" d="M68,30.94a4.71,4.71,0,0,0-.74-.8c-2.55-2.2-9.12-3.89-17.13-4V26c-8.5,0-15.54,1.75-18.2,4.05a4.78,4.78,0,0,0-.74.8c-2.12,2.78-3.57,9.24-3,16.63.72,9,3.46,16.19,6.68,17-.56-7.33-1.41-22.39.38-28.42a1.3,1.3,0,0,1,1.55-.71c.85.14,1.2.69,1.14,1.21-1.76,5.94-1.7,21.83-1.17,28.67.15,1.93.54,3.19,3.3,3.19h8.79v0H59.1c2.76,0,3.15-1.26,3.3-3.19.53-6.83.59-22.73-1.17-28.67-.06-.52.29-1.06,1.14-1.2a1.32,1.32,0,0,1,1.56.7c1.78,6,.93,21.1.37,28.42,3.22-.85,6-8.06,6.68-17C71.58,40.18,70.12,33.73,68,30.94Z" transform="translate(0 -1.25)"/><path class="cls-7" d="M59.1,68.85H48.57v0H40.09c-3.08,0-3.46-1.57-3.6-3.47-.54-6.85-.6-22.76,1.18-28.78,0-.38-.31-.72-.9-.82a1.05,1.05,0,0,0-1.22.49c-1.8,6.1-.85,21.83-.36,28.31l0,.43-.41-.11c-3.31-.88-6.15-8-6.9-17.31-.56-6.95.66-13.71,3-16.84h0a5,5,0,0,1,.78-.84c2.86-2.46,10.25-4.12,18.4-4.12h.3v.08c7.67.17,14.33,1.77,17,4.09a6.27,6.27,0,0,1,.79.86c2.37,3.11,3.59,9.88,3,16.83-.75,9.32-3.59,16.43-6.9,17.3L64,65l0-.42c.49-6.48,1.44-22.21-.36-28.31a1.06,1.06,0,0,0-1.22-.5c-.59.1-.94.44-.89.87,1.77,6,1.71,21.89,1.17,28.73C62.56,67.28,62.18,68.85,59.1,68.85Zm-9.92-.6H59.1c2.59,0,2.86-1.1,3-2.91.53-6.81.6-22.62-1.15-28.56-.1-.69.3-1.41,1.37-1.59a1.61,1.61,0,0,1,1.9.92c1.73,5.86,1,19.9.42,28.06,2.85-1.29,5.35-8.1,6-16.62.63-7.82-1.07-14-2.92-16.43a4.89,4.89,0,0,0-.7-.75c-2.59-2.24-9.4-3.83-16.94-4h-.29v-.07c-7.9,0-15,1.63-17.7,4a5.48,5.48,0,0,0-.7.75c-1.85,2.43-3.55,8.61-2.92,16.44.69,8.51,3.19,15.33,6,16.62C34,56,33.24,41.91,35,36.05a1.61,1.61,0,0,1,1.89-.92c1.07.18,1.47.91,1.38,1.54-1.76,6-1.69,21.8-1.16,28.61.14,1.82.41,2.92,3,2.92h9.09Z" transform="translate(0 -1.25)"/><path class="cls-11" d="M67.61,31.4a6.74,6.74,0,0,0-.58-1,4.08,4.08,0,0,0-.56-.59c-2-1.76-7.88-3.59-16.36-3.74l-1.19,0v0c-8.33.17-14.2,2-16.2,3.74a4,4,0,0,0-.57.62c-1.75,2.29-3.35,9.42-2.74,17,.56,7,2.3,12.23,4.09,14.61-.56-8.36-1-20.73.61-26.23a2.39,2.39,0,0,1,2.39-1.6,3.12,3.12,0,0,1,.52,0,2.33,2.33,0,0,1,2.13,2.55v.09l0,.1a30.17,30.17,0,0,0-.88,5.08C40.39,39.8,49.57,31.51,67.61,31.4Z" transform="translate(0 -1.25)"/><path class="cls-7" d="M59.1,69.15H48.27V69.1H40.09c-3.33,0-3.76-1.85-3.9-3.75-.53-6.84-.6-22.73,1.17-28.83,0-.24-.23-.43-.64-.5s-.84.14-.88.29c-1.79,6-.84,21.74-.35,28.2l.06.84-.82-.21c-4-1.06-6.47-9.59-7.12-17.57-.56-7,.68-13.87,3.1-17h0a6.29,6.29,0,0,1,.83-.89c2.9-2.5,10.37-4.19,18.59-4.19h.6v.08c7.61.21,14.21,1.83,16.92,4.17a5,5,0,0,1,.84.9c2.41,3.17,3.65,10,3.09,17-.64,8-3.1,16.51-7.12,17.57l-.82.22.06-.84c.49-6.47,1.44-22.15-.35-28.21a.83.83,0,0,0-.88-.28c-.41.07-.65.26-.64.5,1.77,6.09,1.71,22,1.17,28.83C62.86,67.3,62.43,69.15,59.1,69.15ZM49.48,68H59.1c2.26,0,2.56-.8,2.7-2.64.53-6.78.6-22.54-1.14-28.45l0-.09a1.73,1.73,0,0,1,1.63-1.88A1.87,1.87,0,0,1,64.5,36c1.71,5.78,1.07,19.36.48,27.61,2.53-1.75,4.77-8.29,5.4-16.1s-1-13.84-2.86-16.23a5.56,5.56,0,0,0-.65-.7c-2.54-2.2-9.28-3.76-16.75-3.89h-.6v-.05c-8.85.08-15,2-17.2,3.89a5.22,5.22,0,0,0-.64.69c-1.83,2.4-3.49,8.49-2.87,16.24s2.87,14.36,5.4,16.11C33.62,55.32,33,41.74,34.69,36a1.87,1.87,0,0,1,2.23-1.13,1.72,1.72,0,0,1,1.63,1.87l0,.09c-1.74,5.92-1.67,21.67-1.14,28.46.14,1.83.44,2.63,2.7,2.63h9.39Z" transform="translate(0 -1.25)"/></g><path class="cls-12" d="M88.55,63.19s-37.85-7.78-78.39,0L9.3,49.62l79.39.43Z" transform="translate(0 -1.25)"/><path class="cls-13" d="M24.41,52.66l10.42,13.6s-16.32,1-29.33,6l1.77-8.54L0,58.57S5.54,55.44,24.41,52.66Z" transform="translate(0 -1.25)"/><path class="cls-14" d="M74,52.66,63.6,66.26s16.33,1,29.34,6l-1.77-8.54,7.27-5.14S92.9,55.44,74,52.66Z" transform="translate(0 -1.25)"/><path class="cls-15" d="M10,63.36s13.28-.55,24.79,2.9L22.46,50.51Z" transform="translate(0 -1.25)"/><path class="cls-16" d="M76,50.51,63.6,66.26c11.52-3.45,24.79-2.9,24.79-2.9Z" transform="translate(0 -1.25)"/><path class="cls-17" d="M7.16,48.64,10,63.36s18.77-5.19,38.4-5.19,40,5.19,40,5.19L92,48.64s-17.17-5.49-44-5.49C27.94,43.15,7.16,48.64,7.16,48.64Z" transform="translate(0 -1.25)"/><path class="cls-18" d="M21.55,52.68v0a4.22,4.22,0,0,0-5.08-3.33,4.25,4.25,0,0,0-3.5,5v0a4.2,4.2,0,0,0,5.07,3.33A4.25,4.25,0,0,0,21.55,52.68Zm-1.85.38a2.46,2.46,0,0,1-1.94,3A2.49,2.49,0,0,1,14.83,54v0a2.47,2.47,0,0,1,1.94-3A2.5,2.5,0,0,1,19.69,53Z" transform="translate(0 -1.25)"/><path class="cls-18" d="M30.36,55.72l-1-8.16-1.77.23.63,5-4.45-4.54-1.65.2,1,8.16,1.77-.22-.65-5.19,4.6,4.69Z" transform="translate(0 -1.25)"/><path class="cls-18" d="M37.74,55.14l-.12-1.61-4.45.35L33,52.16l3.86-.3-.12-1.61-3.87.3-.13-1.66,4.39-.34L37.05,47l-6.18.48.64,8.19Z" transform="translate(0 -1.25)"/><path class="cls-18" d="M49,50.69v0a4.37,4.37,0,0,0-8.73.21v0a4.37,4.37,0,0,0,8.73-.2Zm-1.89.06a2.45,2.45,0,0,1-2.41,2.61,2.5,2.5,0,0,1-2.54-2.53v0a2.45,2.45,0,0,1,2.41-2.61,2.5,2.5,0,0,1,2.54,2.53Z" transform="translate(0 -1.25)"/><path class="cls-18" d="M61.74,46.9l-1.89-.06L58,52.36l-1.68-5.64-1.55,0-2,5.53L51.22,46.6l-1.94-.06,2.57,8.36,1.57,0,2-5.32,1.7,5.43,1.57,0Z" transform="translate(0 -1.25)"/><path class="cls-18" d="M69.31,55.75l.61-8.2-1.78-.13-.38,5L64.3,47.13,62.64,47,62,55.2l1.77.13.4-5.21,3.57,5.51Z" transform="translate(0 -1.25)"/><path class="cls-18" d="M76.67,56.56,76.85,55l-4.43-.5.19-1.72,3.85.43.18-1.59-3.85-.44L73,49.5l4.38.49.18-1.6-6.16-.69-.92,8.17Z" transform="translate(0 -1.25)"/><path class="cls-18" d="M84.47,57.73l-1.54-3.2a2.56,2.56,0,0,0,2.12-2.26v0c.26-1.67-.74-2.86-2.65-3.15l-3.72-.56-1.23,8.12,1.79.27.39-2.6,1.41.22,1.34,2.86Zm-1.24-5.64c-.11.68-.68,1.07-1.55.94l-1.81-.27.36-2.34,1.77.27c.87.13,1.35.61,1.23,1.38Z" transform="translate(0 -1.25)"/><path class="cls-19" d="M21.55,53.06v0a4.21,4.21,0,0,0-5.08-3.33,4.24,4.24,0,0,0-3.5,5v0a4.21,4.21,0,0,0,5.07,3.33A4.25,4.25,0,0,0,21.55,53.06Zm-1.85.38a2.46,2.46,0,0,1-1.94,3,2.51,2.51,0,0,1-2.93-2.07v0a2.46,2.46,0,0,1,1.94-3,2.49,2.49,0,0,1,2.93,2.07Z" transform="translate(0 -1.25)"/><path class="cls-19" d="M30.36,56.09l-1-8.15-1.77.22.63,5-4.45-4.54-1.65.21,1,8.15,1.77-.22-.65-5.18,4.6,4.69Z" transform="translate(0 -1.25)"/><path class="cls-19" d="M37.74,55.51l-.12-1.6-4.45.34L33,52.53l3.86-.3-.12-1.6-3.87.3-.13-1.66,4.39-.34-.12-1.61-6.18.49L31.51,56Z" transform="translate(0 -1.25)"/><path class="cls-19" d="M49,51.06v0a4.37,4.37,0,0,0-8.73.21v0A4.37,4.37,0,0,0,49,51.06Zm-1.89.07a2.45,2.45,0,0,1-2.41,2.61,2.5,2.5,0,0,1-2.54-2.53v0a2.46,2.46,0,0,1,2.41-2.61,2.5,2.5,0,0,1,2.54,2.53Z" transform="translate(0 -1.25)"/><path class="cls-19" d="M61.74,47.27l-1.89-.05L58,52.74,56.31,47.1l-1.55-.05-2,5.54L51.22,47l-1.94-.06,2.57,8.35,1.57,0,2-5.32,1.7,5.42,1.57,0Z" transform="translate(0 -1.25)"/><path class="cls-19" d="M69.31,56.12l.61-8.19-1.78-.13-.38,5L64.3,47.51l-1.66-.13L62,55.57l1.77.14.4-5.21L67.77,56Z" transform="translate(0 -1.25)"/><path class="cls-19" d="M76.67,56.94l.18-1.6-4.43-.5.19-1.71,3.85.43.18-1.6-3.85-.43L73,49.87l4.38.5.18-1.6-6.16-.69-.92,8.16Z" transform="translate(0 -1.25)"/><path class="cls-19" d="M84.47,58.1l-1.54-3.2a2.54,2.54,0,0,0,2.12-2.25v0c.26-1.67-.74-2.85-2.65-3.14l-3.72-.57L77.45,57l1.79.27.39-2.6,1.41.21,1.34,2.87Zm-1.24-5.63c-.11.68-.68,1.07-1.55.94l-1.81-.28.36-2.33,1.77.27c.87.13,1.35.61,1.23,1.37Z" transform="translate(0 -1.25)"/><path class="cls-20" d="M48.55,56.87A10.62,10.62,0,1,1,37.88,67.48,10.63,10.63,0,0,1,48.55,56.87Z" transform="translate(0 -1.25)"/><path class="cls-21" d="M48.55,78.18a10.7,10.7,0,1,1,10.74-10.7A10.73,10.73,0,0,1,48.55,78.18Zm0-21.24A10.54,10.54,0,1,0,59.14,67.48,10.58,10.58,0,0,0,48.55,56.94Z" transform="translate(0 -1.25)"/><path class="cls-22" d="M48.55,58.2a9.29,9.29,0,1,1-9.35,9.28A9.31,9.31,0,0,1,48.55,58.2Z" transform="translate(0 -1.25)"/><path class="cls-23" d="M48.48,62.34a16.37,16.37,0,0,0-7.32,1.91,8.07,8.07,0,0,1,15.07.1A17.57,17.57,0,0,0,48.48,62.34Z" transform="translate(0 -1.25)"/><path class="cls-24" d="M51.34,62.47A4,4,0,0,1,54,61.53l.11.25-1.46,1.73-3.26,4.31-2.26,3.51-.55.94a1.07,1.07,0,0,1-.32.44,3,3,0,0,1-.9.09c-.5,0-.61,0-.72-.08a1.4,1.4,0,0,1-.34-.55,9.86,9.86,0,0,1-1-3.07c0-.27.16-.4.36-.54a2.4,2.4,0,0,1,1.21-.5c.31,0,.34.27.44.52l.31.74c0,.12.19.56.36.56s.34-.36.41-.47L50.07,64Z" transform="translate(0 -1.25)"/><path class="cls-25" d="M51.34,62.79A4,4,0,0,1,54,61.85l.11.25-1.46,1.72-3.26,4.32-2.26,3.5-.55.94a1,1,0,0,1-.32.44,2.74,2.74,0,0,1-.9.1c-.5,0-.61,0-.72-.08a1.4,1.4,0,0,1-.34-.55,9.84,9.84,0,0,1-1-3.08c0-.26.16-.39.36-.53a2.31,2.31,0,0,1,1.21-.5c.31,0,.34.26.44.51l.31.74c0,.13.19.57.36.57s.34-.36.41-.47l3.62-5.39Z" transform="translate(0 -1.25)"/><path class="cls-26" d="M45.43,60.62a5.21,5.21,0,0,1,3.27-1,5.24,5.24,0,0,1,3.27,1,17.69,17.69,0,0,0-3.27-.56A17.69,17.69,0,0,0,45.43,60.62Z" transform="translate(0 -1.25)"/><path class="cls-27" d="M122.15,24.67A11.8,11.8,0,0,0,134.31,13V12.9c0-6.47-5.15-11.65-12.1-11.65A11.79,11.79,0,0,0,110.05,13V13C110.05,19.49,115.2,24.67,122.15,24.67Zm.06-5.63A5.85,5.85,0,0,1,116.45,13V12.9a5.75,5.75,0,0,1,5.7-6A5.85,5.85,0,0,1,127.94,13V13A5.75,5.75,0,0,1,122.21,19Z" transform="translate(0 -1.25)"/><path class="cls-27" d="M137.57,24.22h6.17V11.87l9.62,12.35h5.47V1.7h-6.18V13.6L143.39,1.7h-5.82Z" transform="translate(0 -1.25)"/><path class="cls-27" d="M162.82,24.22H181.1V18.91H169V15.34h10.81V10.42H169V7h11.94V1.7H162.82Z" transform="translate(0 -1.25)"/><path class="cls-27" d="M122.15,52.9a11.8,11.8,0,0,0,12.16-11.71v-.06c0-6.47-5.15-11.65-12.1-11.65a11.79,11.79,0,0,0-12.16,11.71v.06C110.05,47.72,115.2,52.9,122.15,52.9Zm.06-5.63a5.85,5.85,0,0,1-5.76-6.08v-.06a5.75,5.75,0,0,1,5.7-6,5.85,5.85,0,0,1,5.79,6.08v.06A5.75,5.75,0,0,1,122.21,47.27Z" transform="translate(0 -1.25)"/><path class="cls-27" d="M143.58,52.61H149l4.5-13,4.54,13h5.43L171,29.93h-6.46l-3.93,13-4.34-13.09h-5.37L146.57,43l-3.92-13h-6.6Z" transform="translate(0 -1.25)"/><path class="cls-27" d="M173.22,52.45h6.18V40.1L189,52.45h5.47V29.93h-6.18v11.9l-9.26-11.9h-5.83Z" transform="translate(0 -1.25)"/><path class="cls-27" d="M198.48,52.45h18.27V47.14H204.66V43.57h10.81V38.65H204.66V35.24h11.93V29.93H198.48Z" transform="translate(0 -1.25)"/><path class="cls-27" d="M219.28,52.45h6.24V45.63h2.74l4.53,6.82H240l-5.37-7.85a7.12,7.12,0,0,0,4.63-6.92v-.06a7,7,0,0,0-2-5.24c-1.52-1.55-3.9-2.45-7.34-2.45H219.28Zm6.24-11.71v-5.4h4.09c2.09,0,3.38.9,3.38,2.67v.06c0,1.64-1.23,2.67-3.35,2.67Z" transform="translate(0 -1.25)"/><rect class="cls-28" x="112" y="59.04" width="128" height="1"/></g></g></svg>