<svg xmlns="http://www.w3.org/2000/svg" viewBox="0 0 153.26 84.33"><defs><style>.cls-1{fill:#406db3;}.cls-2{fill:#b2c5e0;}</style></defs><title>Asset 4owner-history</title><g id="Layer_2" data-name="Layer 2"><g id="Layer_1-2" data-name="Layer 1"><path class="cls-1" d="M76.63,44.05A20.14,20.14,0,1,0,56.49,23.91,20.14,20.14,0,0,0,76.63,44.05ZM86.7,54.12H66.56a30.2,30.2,0,0,0-30.2,30.21h80.55A30.21,30.21,0,0,0,86.7,54.12Z"/><path class="cls-2" d="M33.8,33.8A16.9,16.9,0,1,0,16.9,16.9,16.9,16.9,0,0,0,33.8,33.8Z"/><path class="cls-2" d="M60.62,50.14a25.27,25.27,0,0,0-18.37-7.89H25.35A25.35,25.35,0,0,0,0,67.6H36.16A34.78,34.78,0,0,1,60.62,50.14Z"/><path class="cls-2" d="M119.46,33.8a16.9,16.9,0,1,0-16.9-16.9A16.9,16.9,0,0,0,119.46,33.8Z"/><path class="cls-2" d="M117.1,67.6h36.16a25.35,25.35,0,0,0-25.35-25.35H111a25.27,25.27,0,0,0-18.37,7.89A34.78,34.78,0,0,1,117.1,67.6Z"/></g></g></svg>